<svg viewBox="0 0 900 230" role="img" aria-label="AI imported status counts per 854 bugs" xmlns="http://www.w3.org/2000/svg"><rect width="900" height="230" fill="white"/><text x="10" y="25" font-size="18">AI imported statuses — 854 bugs per model</text><text x="10" y="77" font-size="15">DeepSeek V4 Flash</text><rect x="190" y="55" width="526.3231850117096" height="35" fill="#486581"/><text x="453.1615925058548" y="78" text-anchor="middle" fill="white" font-size="15">661</text><rect x="716.3231850117096" y="55" width="140.9367681498829" height="35" fill="#f2b24c"/><text x="786.7915690866511" y="78" text-anchor="middle" fill="white" font-size="15">177</text><rect x="857.2599531615925" y="55" width="11.943793911007026" height="35" fill="#197d78"/><rect x="869.2037470725995" y="55" width="0.7962529274004684" height="35" fill="#acb9c6"/><text x="10" y="142" font-size="15">GPT-5.6 Terra</text><rect x="190" y="120" width="341.59250585480095" height="35" fill="#486581"/><text x="360.7962529274005" y="143" text-anchor="middle" fill="white" font-size="15">429</text><rect x="531.592505854801" y="120" width="245.24590163934428" height="35" fill="#f2b24c"/><text x="654.2154566744731" y="143" text-anchor="middle" fill="white" font-size="15">308</text><rect x="776.8384074941453" y="120" width="92.36533957845434" height="35" fill="#197d78"/><text x="823.0210772833724" y="143" text-anchor="middle" fill="white" font-size="15">116</text><rect x="869.2037470725996" y="120" width="0.7962529274004684" height="35" fill="#acb9c6"/><rect x="10" y="195" width="14" height="14" fill="#486581"/><text x="30" y="207" font-size="14">Compile error</text><rect x="235" y="195" width="14" height="14" fill="#f2b24c"/><text x="255" y="207" font-size="14">Invalid oracle</text><rect x="460" y="195" width="14" height="14" fill="#197d78"/><text x="480" y="207" font-size="14">Fixed valid reported</text><rect x="685" y="195" width="14" height="14" fill="#acb9c6"/><text x="705" y="207" font-size="14">No suite</text></svg>